# Blender v2.77 (sub 0) OBJ File: ''
# www.blender.org
mtllib axes.mtl
o Plane.001
v 5.987996 0.000000 7.961873
v 7.987996 0.000000 7.961873
v 5.987996 0.000000 -7.906320
v 7.987996 0.000000 -7.906320
v -7.929677 0.000000 7.994654
v 6.015712 0.000000 7.994654
v -7.929677 0.000000 5.994654
v 6.015712 0.000000 5.994654
vt 0.0965 0.6142
vt 0.0965 0.5411
vt 0.9757 0.5411
vt 0.9757 0.6142
vt 0.0198 0.9989
vt 0.0198 0.5776
vt 0.0876 0.5776
vt 0.0876 0.9989
vn 0.0000 1.0000 0.0000
usemtl None
s off
f 1/1/1 2/2/1 4/3/1 3/4/1
f 5/5/1 6/6/1 8/7/1 7/8/1
